#!OML:ASF X:\für Bonn\!DataBase\2005_08_12_Daniel\c3d\Daniel.ASF
:FULLY-SPECIFIED
:DEGREES
2538
root -4.44218 17.114 -3.07322 305.158 -82.4021 -312.567
lowerback 15.5575 -2.27661 -4.19597
upperback 3.14307 -4.07631 -3.22292
thorax -5.3148 -2.03797 -0.226718
lowerneck -4.96024 1.51497 -4.63878
upperneck 4.25267 2.28832 1.07573
head 2.13044 1.08892 1.2151
rclavicle 1.85864e-014 1.59028e-015
rhumerus -28.3141 -1.01502 -87.2998
rradius 13.6307
rwrist 40.1518
rhand -20.0266 16.684
rfingers 7.12502
rthumb 6.31416 -13.2019
lclavicle 1.85864e-014 1.59028e-015
lhumerus -26.8819 25.149 74.4938
lradius 18.1228
lwrist -41.9759
lhand -18.4796 -1.46359
lfingers 7.12502
lthumb 7.80746 28.3723
rfemur 2.91391 28.3988 22.1125
rtibia 30.866
rfoot -42.0329 -27.8877
rtoes -9.65887
lfemur -6.4142 -11.9758 -22.1796
ltibia 35.2405
lfoot -23.9446 3.74549
ltoes -2.56647
2539
root -4.43959 17.1224 -3.07137 305.389 -82.4073 -312.728
lowerback 15.4471 -2.29449 -4.21988
upperback 3.09825 -4.0933 -3.18825
thorax -5.29759 -2.04431 -0.177768
lowerneck -4.82074 1.54274 -4.64336
upperneck 4.22758 2.31836 1.07125
head 2.09582 1.10382 1.21267
rclavicle -4.29375e-014 -1.86858e-014
rhumerus -27.3616 -0.0158561 -87.6423
rradius 13.8477
rwrist 39.8527
rhand -20.0265 16.6726
rfingers 7.12502
rthumb 6.31422 -13.2133
lclavicle -4.29375e-014 -1.86858e-014
lhumerus -25.3285 25.0074 74.9256
lradius 17.7468
lwrist -42.8713
lhand -18.5457 -1.40164
lfingers 7.12502
lthumb 7.74368 28.4366
rfemur 2.75543 27.9192 21.8897
rtibia 30.7633
rfoot -41.5065 -27.7541
rtoes -9.95661
lfemur -6.29336 -12.4378 -22.2556
ltibia 34.965
lfoot -24.0482 4.08213
ltoes -2.23856
2540
root -4.43581 17.13 -3.06968 305.597 -82.3999 -312.878
lowerback 15.3335 -2.30339 -4.254
upperback 3.06658 -4.10035 -3.16064
thorax -5.26467 -2.04645 -0.133006
lowerneck -4.66163 1.55619 -4.67864
upperneck 4.19811 2.3282 1.11012
head 2.0564 1.10942 1.22853
rclavicle 1.10325e-014 4.09496e-014
rhumerus -26.3435 0.991281 -87.9593
rradius 14.0914
rwrist 39.6799
rhand -20.0915 16.6661
rfingers 7.12502
rthumb 6.25144 -13.2217
lclavicle 1.10325e-014 4.09496e-014
lhumerus -23.6359 24.5042 75.521
lradius 17.4572
lwrist -43.2964
lhand -18.5997 -1.13713
lfingers 7.12502
lthumb 7.69151 28.703
rfemur 2.60538 27.3864 21.6459
rtibia 30.6512
rfoot -40.939 -27.5893
rtoes -10.1935
lfemur -6.17643 -12.903 -22.3439
ltibia 34.7153
lfoot -24.1338 4.42809
ltoes -1.73406
2541
root -4.43244 17.1394 -3.06729 305.812 -82.3915 -313.032
lowerback 15.1905 -2.31752 -4.27571
upperback 3.04754 -4.11065 -3.14176
thorax -5.20368 -2.0514 -0.105565
lowerneck -4.47506 1.56531 -4.7362
upperneck 4.13408 2.33133 1.16368
head 2.00073 1.11218 1.25185
rclavicle -3.43897e-014 -1.63003e-014
rhumerus -25.1973 1.69529 -88.1495
rradius 14.2971
rwrist 40.0261
rhand -20.1894 16.6058
rfingers 7.12502
rthumb 6.15692 -13.2847
lclavicle -3.43897e-014 -1.63003e-014
lhumerus -21.8008 23.8057 76.1937
lradius 17.2031
lwrist -43.4179
lhand -18.6772 -0.72598
lfingers 7.12502
lthumb 7.61677 29.1169
rfemur 2.44968 26.7894 21.3709
rtibia 30.526
rfoot -40.363 -27.3031
rtoes -10.3361
lfemur -6.075 -13.3651 -22.4343
ltibia 34.4907
lfoot -24.234 4.79082
ltoes -1.479
2542
root -4.42798 17.1472 -3.06489 306.036 -82.3955 -313.207
lowerback 15.0719 -2.33133 -4.29252
upperback 3.01651 -4.12127 -3.11804
thorax -5.16869 -2.05567 -0.0742756
lowerneck -4.25238 1.5776 -4.81581
upperneck 4.05393 2.33747 1.22487
head 1.93314 1.11638 1.28068
rclavicle -3.45388e-014 -3.53837e-014
rhumerus -23.9899 2.78527 -88.4362
rradius 14.4504
rwrist 40.0915
rhand -20.3389 16.4776
rfingers 7.12502
rthumb 6.01259 -13.4171
lclavicle -3.45388e-014 -3.53837e-014
lhumerus -19.945 22.9846 76.8853
lradius 17.0822
lwrist -43.3293
lhand -18.6287 -0.235633
lfingers 7.12502
lthumb 7.66356 29.6055
rfemur 2.30561 26.1927 21.1231
rtibia 30.4023
rfoot -39.737 -27.09
rtoes -10.5124
lfemur -5.98553 -13.7851 -22.513
ltibia 34.2911
lfoot -24.2764 5.19756
ltoes -1.26706
2543
root -4.42393 17.1569 -3.06258 306.21 -82.3946 -313.295
lowerback 14.8979 -2.33098 -4.31557
upperback 2.99235 -4.11032 -3.09725
thorax -5.09642 -2.05024 -0.049546
lowerneck -4.1127 1.56676 -4.94971
upperneck 4.03718 2.31787 1.34388
head 1.90151 1.1075 1.33926
rclavicle 4.99943e-014 2.70347e-014
rhumerus -22.5971 4.08907 -88.7228
rradius 14.4242
rwrist 39.9717
rhand -20.5713 16.3025
rfingers 7.12502
rthumb 5.7883 -13.5984
lclavicle 4.99943e-014 2.70347e-014
lhumerus -17.9884 21.8182 77.647
lradius 17.0417
lwrist -42.978
lhand -18.6745 0.309491
lfingers 7.12502
lthumb 7.61938 30.1522
rfemur 2.11313 25.5832 20.8325
rtibia 30.2751
rfoot -39.1226 -26.8175
rtoes -10.7266
lfemur -5.95522 -14.2133 -22.5895
ltibia 34.11
lfoot -24.3374 5.59278
ltoes -1.161
2544
root -4.41976 17.165 -3.05943 306.445 -82.4009 -313.486
lowerback 14.7784 -2.33491 -4.3014
upperback 2.96376 -4.10423 -3.08915
thorax -5.062 -2.04704 -0.0551933
lowerneck -3.97043 1.55732 -5.08148
upperneck 4.03086 2.29938 1.46652
head 1.87288 1.09901 1.39888
rclavicle -1.86858e-014 -1.51076e-014
rhumerus -21.1232 5.59746 -89.0311
rradius 14.3756
rwrist 39.5287
rhand -20.7472 16.0314
rfingers 7.12502
rthumb 5.61845 -13.8741
lclavicle -1.86858e-014 -1.51076e-014
lhumerus -16.0397 20.6049 78.332
lradius 17.098
lwrist -42.6317
lhand -18.694 0.74404
lfingers 7.12502
lthumb 7.60049 30.5875
rfemur 1.97356 24.9961 20.5941
rtibia 30.1477
rfoot -38.4943 -26.6105
rtoes -10.962
lfemur -5.88437 -14.6233 -22.6605
ltibia 33.9525
lfoot -24.4031 5.98069
ltoes -0.999937
2545
root -4.41526 17.1733 -3.05647 306.609 -82.3968 -313.591
lowerback 14.6598 -2.33705 -4.32929
upperback 2.93229 -4.10197 -3.07404
thorax -5.02752 -2.04501 -0.0292324
lowerneck -3.90332 1.54082 -5.18634
upperneck 4.056 2.27495 1.56843
head 1.86863 1.08711 1.44881
rclavicle -1.49089e-014 -2.18663e-014
rhumerus -19.5825 7.32374 -89.3097
rradius 14.4116
rwrist 38.834
rhand -20.8788 15.7106
rfingers 7.12502
rthumb 5.49134 -14.1983
lclavicle -1.49089e-014 -2.18663e-014
lhumerus -14.0919 19.1544 78.9916
lradius 17.2857
lwrist -42.0441
lhand -18.6586 1.08663
lfingers 7.12502
lthumb 7.63472 30.9288
rfemur 1.83104 24.4534 20.348
rtibia 30.0207
rfoot -37.9748 -26.3535
rtoes -11.1287
lfemur -5.84674 -15.0491 -22.75
ltibia 33.8074
lfoot -24.451 6.41228
ltoes -0.9662
2546
root -4.41028 17.1798 -3.05294 306.883 -82.402 -313.856
lowerback 14.5856 -2.33559 -4.31499
upperback 2.91367 -4.09227 -3.06982
thorax -5.00763 -2.04014 -0.0376921
lowerneck -3.85136 1.52487 -5.2751
upperneck 4.11071 2.25141 1.66267
head 1.87691 1.07522 1.49425
rclavicle 1.80646e-014 2.38542e-015
rhumerus -17.9934 8.80386 -89.4812
rradius 14.5575
rwrist 38.1363
rhand -20.9298 15.3838
rfingers 7.12502
rthumb 5.44211 -14.5264
lclavicle 1.80646e-014 2.38542e-015
lhumerus -12.1561 17.8227 79.543
lradius 17.5335
lwrist -41.7928
lhand -18.6643 1.30749
lfingers 7.12502
lthumb 7.62916 31.1499
rfemur 1.76062 23.9301 20.1654
rtibia 29.8983
rfoot -37.469 -26.1051
rtoes -11.2898
lfemur -5.76762 -15.4438 -22.8181
ltibia 33.6769
lfoot -24.5078 6.80456
ltoes -0.953718
2547
root -4.40565 17.1876 -3.04955 307.051 -82.3975 -313.982
lowerback 14.4741 -2.33715 -4.33028
upperback 2.88351 -4.08909 -3.07077
thorax -4.9777 -2.03804 -0.03544
lowerneck -3.76713 1.51399 -5.33244
upperneck 4.12354 2.23224 1.72565
head 1.86599 1.06579 1.52304
rclavicle 4.52235e-014 -9.93923e-015
rhumerus -16.3635 10.1751 -89.5616
rradius 14.8147
rwrist 37.3962
rhand -20.9927 15.1081
rfingers 7.12502
rthumb 5.38135 -14.8036
lclavicle 4.52235e-014 -9.93923e-015
lhumerus -10.2038 16.528 79.9843
lradius 17.7667
lwrist -41.7168
lhand -18.6444 1.35468
lfingers 7.12502
lthumb 7.64838 31.1964
rfemur 1.6607 23.4883 19.9743
rtibia 29.785
rfoot -37.0232 -25.8975
rtoes -11.5002
lfemur -5.72874 -15.8362 -22.8972
ltibia 33.5541
lfoot -24.5647 7.18853
ltoes -0.871993
2548
root -4.4008 17.1938 -3.04665 307.22 -82.397 -314.138
lowerback 14.3881 -2.33182 -4.36548
upperback 2.86258 -4.07962 -3.04783
thorax -4.94885 -2.03249 0.00281519
lowerneck -3.70128 1.49871 -5.43051
upperneck 4.16123 2.21002 1.7947
head 1.86638 1.0539 1.56164
rclavicle 2.11954e-014 3.18055e-014
rhumerus -14.5994 11.3876 -89.5056
rradius 15.0289
rwrist 36.7378
rhand -21.1773 14.8675
rfingers 7.12502
rthumb 5.20314 -15.0486
lclavicle 2.11954e-014 3.18055e-014
lhumerus -8.18989 15.3759 80.3942
lradius 17.8841
lwrist -41.8384
lhand -18.6314 1.24481
lfingers 7.12502
lthumb 7.66089 31.086
rfemur 1.60461 23.1288 19.8357
rtibia 29.6805
rfoot -36.6355 -25.7689
rtoes -11.5838
lfemur -5.66343 -16.2301 -22.9769
ltibia 33.4402
lfoot -24.647 7.57114
ltoes -0.876249
2549
root -4.39542 17.1987 -3.04375 307.414 -82.3909 -314.322
lowerback 14.2951 -2.32713 -4.39584
upperback 2.84466 -4.07085 -3.03969
thorax -4.91445 -2.02777 0.0225778
lowerneck -3.61324 1.47782 -5.53843
upperneck 4.20279 2.17727 1.91171
head 1.86421 1.03763 1.61708
rclavicle -3.27995e-015 -6.75868e-015
rhumerus -12.7507 12.4498 -89.3839
rradius 15.2556
rwrist 36.1051
rhand -21.4817 14.6619
rfingers 7.12502
rthumb 4.90926 -15.2612
lclavicle -3.27995e-015 -6.75868e-015
lhumerus -6.10357 14.1861 80.7029
lradius 17.8738
lwrist -42.0806
lhand -18.671 1.02161
lfingers 7.12502
lthumb 7.62268 30.8642
rfemur 1.56185 22.8263 19.7212
rtibia 29.5886
rfoot -36.3476 -25.6265
rtoes -11.6515
lfemur -5.604 -16.5869 -23.0498
ltibia 33.3302
lfoot -24.7238 7.90687
ltoes -0.837179
2550
root -4.39048 17.2034 -3.04088 307.582 -82.3902 -314.478
lowerback 14.1906 -2.32625 -4.43421
upperback 2.8272 -4.06732 -3.03013
thorax -4.8724 -2.02568 0.0486253
lowerneck -3.50923 1.46602 -5.55953
upperneck 4.22352 2.15505 1.93328
head 1.85295 1.0259 1.62586
rclavicle -8.09302e-014 -4.25399e-014
rhumerus -10.8399 13.4076 -89.1797
rradius 15.4857
rwrist 35.4809
rhand -21.9048 14.6385
rfingers 7.12502
rthumb 4.50073 -15.2937
lclavicle -8.09302e-014 -4.25399e-014
lhumerus -4.01976 13.0395 80.9405
lradius 17.8522
lwrist -42.3763
lhand -18.7186 0.792333
lfingers 7.12502
lthumb 7.57674 30.6366
rfemur 1.52851 22.5948 19.6353
rtibia 29.5085
rfoot -36.0971 -25.5568
rtoes -11.7668
lfemur -5.55525 -16.9281 -23.1209
ltibia 33.2279
lfoot -24.7944 8.26258
ltoes -0.968885
2551
root -4.38561 17.2075 -3.03798 307.745 -82.3903 -314.64
lowerback 14.0954 -2.31829 -4.46072
upperback 2.81286 -4.05424 -3.03317
thorax -4.83422 -2.01926 0.0535928
lowerneck -3.40752 1.44559 -5.59747
upperneck 4.25486 2.12046 1.99624
head 1.8458 1.00856 1.65103
rclavicle 4.04775e-014 1.70955e-014
rhumerus -8.85322 14.03 -88.9033
rradius 15.6954
rwrist 35.1229
rhand -22.4541 14.7046
rfingers 7.12502
rthumb 3.97026 -15.2381
lclavicle 4.04775e-014 1.70955e-014
lhumerus -1.98748 11.6617 81.0809
lradius 17.9437
lwrist -42.4992
lhand -18.7005 0.562265
lfingers 7.12502
lthumb 7.5942 30.4059
rfemur 1.50304 22.4021 19.5669
rtibia 29.4422
rfoot -35.8722 -25.4965
rtoes -11.8496
lfemur -5.49297 -17.2482 -23.1857
ltibia 33.1296
lfoot -24.8604 8.57334
ltoes -0.968639
2552
root -4.38047 17.2111 -3.03567 307.957 -82.3892 -314.853
lowerback 13.9994 -2.31645 -4.4927
upperback 2.79564 -4.05001 -3.03649
thorax -4.79801 -2.01701 0.0628913
lowerneck -3.22839 1.43089 -5.59613
upperneck 4.23997 2.08812 2.02867
head 1.81 0.992645 1.65742
rclavicle -2.42766e-014 -1.23246e-014
rhumerus -6.82015 14.4051 -88.5872
rradius 15.8596
rwrist 34.9569
rhand -23.0949 14.8788
rfingers 7.12502
rthumb 3.35149 -15.0746
lclavicle -2.42766e-014 -1.23246e-014
lhumerus 0.0100729 10.2317 81.1241
lradius 18.1009
lwrist -42.5114
lhand -18.7321 0.364572
lfingers 7.12502
lthumb 7.56378 30.2093
rfemur 1.49004 22.2692 19.5224
rtibia 29.3783
rfoot -35.7321 -25.4519
rtoes -11.891
lfemur -5.43854 -17.5607 -23.242
ltibia 33.0437
lfoot -24.914 8.88779
ltoes -1.07399
